<?xml version="1.0" standalone="no"?><!DOCTYPE svg PUBLIC "-//W3C//DTD SVG 1.1//EN" "http://www.w3.org/Graphics/SVG/1.1/DTD/svg11.dtd"><svg t="1597904472775" class="icon" viewBox="0 0 1882 1024" version="1.1" xmlns="http://www.w3.org/2000/svg" p-id="2180" xmlns:xlink="http://www.w3.org/1999/xlink" width="367.578125" height="200"><defs><style type="text/css"></style></defs><path d="M785.23218858 837.88839531c-117.33601807 0-233.019416-24.92150922-334.55638695-72.0872832-99.15719829-46.09157074-183.57302663-112.54341996-243.94323446-192.18317628a102.34675459 102.34675459 0 0 1 0-123.21934556C267.10277499 370.75883396 351.45249827 304.30698537 450.67580163 258.21541401 552.22929869 211.04964001 667.91269661 186.11160469 785.23218858 186.11160469s233.019416 24.92150922 334.55638693 72.0872832c99.15719829 46.09157074 183.57302663 112.54341996 243.94323384 192.18317628a102.34675459 102.34675459 0 0 1 0 123.21934556c-60.37020783 79.65628242-144.75298331 146.10813165-243.91018162 192.19970238-101.57002315 47.16577399-217.25342171 72.0872832-334.58943915 72.0872832z m0-579.04498546c-214.17954817 0-408.77554993 88.03506592-520.5752913 235.48181981a29.38358331 29.38358331 0 0 0 0 35.36606742c111.7666885 147.44675387 306.36269027 235.4818198 520.5752913 235.48181917s408.77554993-88.03506592 520.57529064-235.48181917a29.36705721 29.36705721 0 0 0 0-35.36606742c-111.79974135-147.46327998-306.39574247-235.4983459-520.57529064-235.49834591z" fill="#dbdbdb" p-id="2181"></path><path d="M785.23218858 694.62276981a182.61450677 182.61450677 0 1 1 182.54840169-182.61450675 182.82934742 182.82934742 0 0 1-182.54840169 182.61450675z m0-292.5137351a109.89922834 109.89922834 0 1 0 109.83312328 109.89922835 110.01491172 110.01491172 0 0 0-109.83312328-109.89922835z" fill="#dbdbdb" p-id="2182"></path></svg>